:SAMPLES-PER-SECOND 30
:FRAME-RANGE 1-3535
:FULLY-SPECIFIED
:DEGREES
2541
root  -48.3593 39.8801 24.7257 177.584 2.35205 -176.88
RightUpLeg  5.97045 -7.70665 -4.32838
RightLeg  -0.611057 -16.3308 2.8897
RightFoot  -0.791897 -0.601665 6.45097
RightToes  1.22775e-009 1.2921e-014 -6.02303e-014
Spine  -0.0823167 -1.61288 -4.75367
Spine1  2.90828 -1.38956 -0.414535
HEad  2.1814 -25.8754 -1.712
LeftShoulder1  1.77749 -1.17863 -31.9219
LeftArm  22.9757 -3.20705 -45.6382
LeftForeArm  17.6461 -50.7795 -12.4094
LeftHand  0.604222 -4.00431 -7.19428
RightShoulder  7.52981 9.46532 50.851
RightArm  10.7306 2.42615 17.9805
RightForeArm  10.1294 48.0162 11.7421
RightHand  0.112024 4.22862 1.07359
LeftUpLeg  5.23907 12.1823 13.3325
LeftLeg  3.63419 2.57834 -1.10674
LeftFoot  -3.32974 0.703327 -9.74228
LeftToes  2.52163e-011 5.65494e-011 -1.09494e-012
2542
root  -48.3949 39.8765 24.7636 177.555 2.45239 -176.809
RightUpLeg  5.94773 -7.65044 -4.26656
RightLeg  -0.673522 -16.3243 2.86613
RightFoot  -0.688435 -0.600845 6.38685
RightToes  1.22775e-009 1.2921e-014 -6.02303e-014
Spine  -0.0455307 -1.56506 -4.88606
Spine1  2.9707 -1.32431 -0.47388
HEad  2.20271 -25.8962 -1.94051
LeftShoulder1  1.77185 -1.16354 -31.9235
LeftArm  22.5026 -3.51583 -45.3913
LeftForeArm  18.0831 -51.6896 -12.8191
LeftHand  0.606435 -3.9381 -7.27761
RightShoulder  7.43679 9.31917 50.7968
RightArm  10.7065 1.9932 17.9529
RightForeArm  10.5071 48.6951 12.0131
RightHand  0.102846 4.22021 0.964312
LeftUpLeg  5.09673 12.3016 13.3986
LeftLeg  3.94458 2.55471 -1.15366
LeftFoot  -3.46172 0.686154 -9.64597
LeftToes  2.52163e-011 5.65494e-011 -1.09494e-012
2543
root  -48.4337 39.8755 24.8042 177.511 2.6947 -176.757
RightUpLeg  6.03857 -7.53158 -4.20782
RightLeg  -0.98995 -16.1818 2.84566
RightFoot  -0.487449 -0.619286 6.47608
RightToes  1.22775e-009 1.2921e-014 -6.02303e-014
Spine  -0.0139592 -1.4939 -4.90745
Spine1  3.05844 -1.20556 -0.695116
HEad  2.19506 -25.9341 -2.09873
LeftShoulder1  1.75975 -1.13069 -31.9311
LeftArm  21.9479 -3.69994 -45.0239
LeftForeArm  18.538 -52.9282 -13.4195
LeftHand  0.596043 -3.74659 -7.3128
RightShoulder  7.41436 9.28274 50.7882
RightArm  10.4678 1.63728 17.7917
RightForeArm  11.0556 49.4286 12.3044
RightHand  0.0996551 4.25911 0.919486
LeftUpLeg  5.07791 12.4202 13.4466
LeftLeg  4.10545 2.69433 -1.20381
LeftFoot  -3.51224 0.673727 -9.52316
LeftToes  2.52163e-011 5.65494e-011 -1.09494e-012
2544
root  -48.4729 39.8783 24.8459 177.516 2.97144 -176.769
RightUpLeg  6.10435 -7.4372 -4.20648
RightLeg  -1.38307 -15.9869 2.83527
RightFoot  -0.264136 -0.630335 6.47427
RightToes  1.22775e-009 1.2921e-014 -6.02303e-014
Spine  -0.0683164 -1.43081 -5.03492
Spine1  3.17754 -1.10289 -0.852062
HEad  2.12368 -26.0113 -2.30063
LeftShoulder1  1.74975 -1.10672 -31.9113
LeftArm  21.1966 -3.70678 -44.7849
LeftForeArm  19.2541 -54.0517 -13.9722
LeftHand  0.594043 -3.70272 -7.32593
RightShoulder  7.333 9.15128 50.7539
RightArm  10.1903 1.39904 17.8049
RightForeArm  11.4769 50.3098 12.6866
RightHand  0.0702131 4.13503 0.581161
LeftUpLeg  5.07336 12.4984 13.4243
LeftLeg  4.16675 2.8576 -1.28101
LeftFoot  -3.55791 0.668788 -9.47866
LeftToes  2.52163e-011 5.65494e-011 -1.09494e-012
2545
root  -48.5114 39.8805 24.8946 177.587 3.25214 -176.71
RightUpLeg  6.10789 -7.27092 -4.10088
RightLeg  -1.83393 -15.8944 2.83815
RightFoot  0.0112854 -0.648581 6.51841
RightToes  1.22775e-009 1.2921e-014 -6.02303e-014
Spine  -0.115049 -1.40179 -5.10507
Spine1  3.18967 -1.04744 -0.97451
HEad  2.0561 -25.9735 -2.53702
LeftShoulder1  1.74341 -1.08839 -31.9244
LeftArm  20.4607 -3.61529 -44.5218
LeftForeArm  19.7913 -55.2814 -14.6404
LeftHand  0.590881 -3.5822 -7.39273
RightShoulder  7.33831 9.15378 50.7801
RightArm  9.79593 1.21581 17.6088
RightForeArm  11.871 51.281 13.1326
RightHand  0.0428595 4.13244 0.248195
LeftUpLeg  4.96651 12.623 13.4569
LeftLeg  4.24876 3.05382 -1.35444
LeftFoot  -3.57031 0.659236 -9.35086
LeftToes  2.52163e-011 5.65494e-011 -1.09494e-012
2546
root  -48.5541 39.8864 24.9475 177.613 3.53992 -176.659
RightUpLeg  6.01352 -7.20676 -4.08504
RightLeg  -1.92523 -15.6145 2.80865
RightFoot  0.23095 -0.676301 6.68162
RightToes  1.22775e-009 1.2921e-014 -6.02303e-014
Spine  -0.026801 -1.36116 -5.14047
Spine1  3.10142 -0.985778 -1.09477
HEad  1.99237 -25.8996 -2.67239
LeftShoulder1  1.74352 -1.08905 -31.9214
LeftArm  19.7112 -3.48389 -44.4222
LeftForeArm  20.6283 -56.4261 -15.2745
LeftHand  0.60315 -3.53232 -7.59698
RightShoulder  7.22717 8.99634 50.6438
RightArm  9.19901 1.15561 17.685
RightForeArm  12.7033 52.3522 13.6169
RightHand  0.0157182 4.0968 -0.0804659
LeftUpLeg  4.92214 12.6699 13.4486
LeftLeg  4.28341 3.30756 -1.37332
LeftFoot  -3.54512 0.65165 -9.24248
LeftToes  2.52163e-011 5.65494e-011 -1.09494e-012
